<svg viewBox="0 0 100 30" fill="none" xmlns="http://www.w3.org/2000/svg">
<!-- <svg width="100" height="30" viewBox="0 0 100 30" fill="none" xmlns="http://www.w3.org/2000/svg"> -->
<path d="M33.9494 11.26C31.9127 11.26 30.3768 12.8647 30.3768 14.9958C30.3768 17.1268 31.9288 18.7316 33.9862 18.7316C36.0223 18.7316 37.5582 17.1268 37.5582 14.9958C37.5582 12.8647 36.0068 11.26 33.9494 11.26ZM44.2712 0.152069H0V29.9999H44.2712L54.7259 15.1081L44.2712 0.152069ZM23.1488 19.7214L23.0462 19.808C21.3934 21.2009 19.48 21.907 17.3593 21.907C15.3542 21.907 13.5453 21.2105 12.2662 19.946C10.9987 18.6918 10.2998 16.9336 10.2998 14.9958C10.2998 13.1343 11.0097 11.4012 12.3004 10.1174C13.6098 8.80731 15.3981 8.08583 17.3439 8.08583C19.5381 8.08583 21.0553 8.61474 22.5899 9.91072L22.8087 10.0956L20.6513 12.6773L20.4274 12.4918C19.4864 11.7119 18.6642 11.26 17.2477 11.26C15.3691 11.26 13.8409 12.9359 13.8409 14.9958C13.8409 17.182 15.3588 18.7682 17.4497 18.7682C18.37 18.7682 19.1883 18.5506 19.8265 18.1365V16.7481H16.9767V13.7364H23.1488V19.7214ZM39.0735 19.8773C37.7454 21.1862 35.9255 21.907 33.9494 21.907C31.9734 21.907 30.1573 21.1913 28.8428 19.8908C27.5482 18.6103 26.8351 16.8739 26.8351 14.9958C26.8292 14.0889 27.0054 13.19 27.3534 12.3518C27.7014 11.5135 28.2141 10.7528 28.8615 10.1142C30.1896 8.80539 32.0095 8.08775 33.9862 8.08775C35.9629 8.08775 37.7777 8.8041 39.0922 10.1039C40.3868 11.3845 41.0999 13.1208 41.0999 14.999C41.1054 15.9053 40.929 16.8036 40.5811 17.6413C40.2331 18.479 39.7206 19.2392 39.0735 19.8773Z" fill="#181C27"/>
<path d="M10.5732 15.0202C10.5732 11.4436 13.3741 8.51404 17.2049 8.51404C19.4817 8.51404 20.855 9.12512 22.1741 10.2394L20.4213 12.3423C19.4455 11.5335 18.5782 11.0662 17.1145 11.0662C15.0907 11.0662 13.4825 12.8455 13.4825 15.0202C13.4825 17.3208 15.0726 19.0102 17.3133 19.0102C18.3252 19.0102 19.2287 18.7586 19.9334 18.2554V16.4581H17.1326V14.0651H22.6258V19.5289C21.3248 20.6252 19.5359 21.5239 17.223 21.5239C13.2837 21.5239 10.5732 18.774 10.5732 15.0202Z" fill="white" stroke="white" stroke-miterlimit="10"/>
<path d="M27.3525 15.1081C27.3525 11.5315 30.1921 8.60193 34.0926 8.60193C37.9931 8.60193 40.7965 11.4956 40.7965 15.1081C40.7965 18.6847 37.957 21.6143 34.0565 21.6143C30.1559 21.6143 27.3525 18.7207 27.3525 15.1081ZM37.8873 15.1081C37.8873 12.9514 36.2971 11.1541 34.0565 11.1541C31.8158 11.1541 30.2618 12.9154 30.2618 15.1081C30.2618 17.2649 31.8519 19.0622 34.0926 19.0622C36.3333 19.0622 37.8873 17.3008 37.8873 15.1081Z" fill="white" stroke="white" stroke-miterlimit="10"/>
<path d="M100 0H55.7837V29.8479H100V0Z" fill="#FF6C00"/>
<path d="M69.4062 8.94598H72.189V21.527H69.4062V8.94598Z" fill="white" stroke="white" stroke-miterlimit="10"/>
<path d="M80.4212 11.4981H76.5723V8.94598H87.0528V11.4981H83.2039V21.527H80.4212V11.4981Z" fill="white" stroke="white" stroke-miterlimit="10"/>
</svg>
