<svg xmlns="http://www.w3.org/2000/svg" fill="none" viewBox="0 0 52 52"><g filter="url(#filter0_d)"><rect width="44" height="44" x="4" y="1" fill="#FF6B08" rx="22"/></g><g fill="#fff" clip-path="url(#clip0)"><path d="M36.542 33.083H15.458a.458.458 0 0 0 0 .917h21.084a.458.458 0 0 0 0-.917z"/><path d="M19.125 27.583h-2.75a.459.459 0 0 0-.459.459v5.5c0 .253.206.458.459.458h2.75a.458.458 0 0 0 .458-.458v-5.5a.458.458 0 0 0-.458-.459zm-.459 5.5h-1.833V28.5h1.834v4.583zM24.625 23h-2.75a.459.459 0 0 0-.459.458v10.084c0 .253.206.458.459.458h2.75a.458.458 0 0 0 .458-.458V23.458a.458.458 0 0 0-.458-.458zm-.459 10.083h-1.833v-9.166h1.834v9.166zM30.125 24.833h-2.75a.459.459 0 0 0-.459.459v8.25c0 .253.206.458.459.458h2.75a.459.459 0 0 0 .458-.458v-8.25a.459.459 0 0 0-.458-.459zm-.459 8.25h-1.833V25.75h1.834v7.333zM35.625 19.333h-2.75a.459.459 0 0 0-.459.459v13.75c0 .253.206.458.459.458h2.75a.459.459 0 0 0 .458-.458v-13.75a.458.458 0 0 0-.458-.459zm-.459 13.75h-1.833V20.25h1.834v12.833zM17.75 20.25a1.835 1.835 0 0 0-1.834 1.833c0 1.011.823 1.834 1.834 1.834a1.835 1.835 0 0 0 1.833-1.834 1.835 1.835 0 0 0-1.833-1.833zm0 2.75a.918.918 0 0 1 0-1.833.918.918 0 0 1 0 1.833zM23.25 15.667a1.835 1.835 0 0 0-1.834 1.833c0 1.011.823 1.833 1.834 1.833a1.835 1.835 0 0 0 1.833-1.833 1.835 1.835 0 0 0-1.833-1.833zm0 2.75a.918.918 0 0 1 0-1.834.918.918 0 0 1 0 1.834zM28.75 17.5a1.835 1.835 0 0 0-1.834 1.833c0 1.011.823 1.834 1.834 1.834a1.835 1.835 0 0 0 1.833-1.834A1.835 1.835 0 0 0 28.75 17.5zm0 2.75a.918.918 0 0 1 0-1.833.918.918 0 0 1 0 1.833zM34.25 12a1.835 1.835 0 0 0-1.834 1.833c0 1.011.823 1.834 1.834 1.834a1.835 1.835 0 0 0 1.833-1.834A1.835 1.835 0 0 0 34.25 12zm0 2.75a.918.918 0 0 1 0-1.833.918.918 0 0 1 0 1.833z"/><path d="M33.603 14.48a.459.459 0 0 0-.648 0l-3.557 3.557a.459.459 0 0 0 .648.648l3.557-3.556a.459.459 0 0 0 0-.649zM27.642 18.276l-2.944-.84a.458.458 0 1 0-.251.882l2.944.84a.461.461 0 0 0 .566-.316.458.458 0 0 0-.315-.566zM22.535 18.071a.459.459 0 0 0-.644-.073l-3.455 2.755a.458.458 0 0 0 .57.718l3.456-2.756a.458.458 0 0 0 .073-.644z"/></g><defs><filter id="filter0_d" width="52" height="52" x="0" y="0" color-interpolation-filters="sRGB" filterUnits="userSpaceOnUse"><feFlood flood-opacity="0" result="BackgroundImageFix"/><feColorMatrix in="SourceAlpha" values="0 0 0 0 0 0 0 0 0 0 0 0 0 0 0 0 0 0 127 0"/><feOffset dy="3"/><feGaussianBlur stdDeviation="2"/><feColorMatrix values="0 0 0 0 1 0 0 0 0 0.419608 0 0 0 0 0.0313726 0 0 0 0.3 0"/><feBlend in2="BackgroundImageFix" result="effect1_dropShadow"/><feBlend in="SourceGraphic" in2="effect1_dropShadow" result="shape"/></filter><clipPath id="clip0"><path fill="#fff" d="M0 0h22v22H0z" transform="translate(15 12)"/></clipPath></defs></svg>