<svg xmlns="http://www.w3.org/2000/svg" fill="none" viewBox="0 0 20 20"><g clip-path="url(#clip0)"><path fill="#A6A6A6" d="M19.756 18.577l-5.688-5.687a7.878 7.878 0 0 0 1.765-4.973C15.833 3.552 12.281 0 7.917 0 3.552 0 0 3.552 0 7.917s3.552 7.916 7.917 7.916a7.878 7.878 0 0 0 4.973-1.765l5.687 5.688a.831.831 0 0 0 1.179 0 .832.832 0 0 0 0-1.179zm-11.84-4.41a6.256 6.256 0 0 1-6.25-6.25 6.256 6.256 0 0 1 6.25-6.25 6.256 6.256 0 0 1 6.25 6.25 6.256 6.256 0 0 1-6.25 6.25z"/></g><defs><clipPath id="clip0"><path fill="#fff" d="M0 0h20v20H0z"/></clipPath></defs></svg>