<svg aria-hidden="true" style="position:absolute;width:0;height:0" xmlns="http://www.w3.org/2000/svg" overflow="hidden"><defs><symbol id="icon-add" viewBox="0 0 9 9"><path fill="var(--color1, #ff6b08)" d="M4.5.173a3.808 3.808 0 110 7.616 3.808 3.808 0 010-7.616z"/><path fill="var(--color2, #fff)" d="M6.046 4.084H4.61v1.399h-.231V4.084H2.95v-.216h1.429V2.461h.231v1.407h1.437v.216z"/></symbol><symbol id="icon-arrow-left" viewBox="0 0 9 9"><path stroke-width=".643" d="M7.071 8.357L1.928 4.5 7.071.643"/></symbol><symbol id="icon-arrow-right" viewBox="0 0 9 9"><path stroke-width=".643" d="M1.929 8.357L7.072 4.5 1.929.643"/></symbol><symbol id="icon-diagram" viewBox="0 0 9 9"><path fill="var(--color1, #ff6b08)" d="M4.5.173a3.808 3.808 0 110 7.616 3.808 3.808 0 010-7.616z"/><path fill="var(--color2, #fff)" d="M6.325 5.726H2.676c-.044 0-.079.036-.079.079s.036.079.079.079h3.649c.044 0 .079-.036.079-.079s-.036-.079-.079-.079z"/><path fill="var(--color2, #fff)" d="M3.31 4.774h-.476a.08.08 0 00-.079.079v.952a.08.08 0 00.079.079h.476a.079.079 0 00.079-.079v-.952a.079.079 0 00-.079-.079zm-.079.952h-.317v-.793h.317v.793zm1.031-1.745h-.476a.079.079 0 00-.079.079v1.745a.08.08 0 00.079.079h.476a.079.079 0 00.079-.079V4.06a.079.079 0 00-.079-.079zm-.079 1.745h-.317V4.14h.317v1.586zm1.031-1.428h-.476a.08.08 0 00-.079.079v1.428a.08.08 0 00.079.079h.476a.08.08 0 00.079-.079V4.377a.079.079 0 00-.079-.079zm-.079 1.428h-.317V4.457h.317v1.269zm1.031-2.38H5.69a.08.08 0 00-.079.079v2.38a.08.08 0 00.079.079h.476a.08.08 0 00.079-.079v-2.38a.079.079 0 00-.079-.079zm-.08 2.38h-.317V3.505h.317v2.221zM3.072 3.505a.317.317 0 10.317.317.317.317 0 00-.317-.317zm0 .476a.16.16 0 01-.001-.318.16.16 0 01.001.318zm.952-1.269a.317.317 0 10.317.317.317.317 0 00-.317-.317zm0 .476a.16.16 0 010-.318.16.16 0 010 .318zm.952-.159a.317.317 0 10.317.317.317.317 0 00-.317-.317zm0 .476a.16.16 0 01-.001-.318.16.16 0 01.001.318zm.952-1.428a.317.317 0 10.317.317.317.317 0 00-.317-.317zm0 .476a.16.16 0 01-.001-.318.16.16 0 01.001.318z"/><path fill="var(--color2, #fff)" d="M5.816 2.506a.08.08 0 00-.112 0l-.616.616a.08.08 0 00.112.112l.616-.615a.08.08 0 000-.112zm-1.032.657l-.51-.145a.08.08 0 00-.044.152h.001l.51.145a.079.079 0 00.097-.054V3.26a.08.08 0 00-.054-.098h-.001zM3.9 3.128a.08.08 0 00-.112-.013l-.598.477a.08.08 0 00.098.124l.598-.477a.08.08 0 00.03-.062.086.086 0 00-.017-.05z"/></symbol><symbol id="icon-edit" viewBox="0 0 9 9"><path fill="var(--color3, #a6a6a6)" d="M4.5 0a4.5 4.5 0 100 9 4.5 4.5 0 000-9zm2.139 3.238l-.428.427-.87-.87-.33.33.87.87-2.134 2.133-.87-.87-.33.33.87.87-.213.213-.004-.004a.17.17 0 01-.106.077h-.001l-.811.181a.167.167 0 01-.155-.045.168.168 0 01-.045-.157v.001l.18-.811a.17.17 0 01.077-.107h.001l-.004-.004L5.77 2.368c.023-.023.056-.038.091-.038s.068.014.091.038l.688.688c.023.023.038.056.038.091s-.014.068-.038.091z"/></symbol><symbol id="icon-search" viewBox="0 0 9 9"><path d="M8.89 8.36L6.33 5.801a3.521 3.521 0 00.794-2.236v-.002C7.124 1.599 5.526 0 3.562 0S-.001 1.598-.001 3.563s1.598 3.562 3.563 3.562h.002c.851 0 1.632-.3 2.243-.799l-.006.005 2.559 2.56a.374.374 0 00.53 0 .374.374 0 000-.53zM3.562 6.375A2.816 2.816 0 01.749 3.563 2.816 2.816 0 013.561.75a2.816 2.816 0 012.813 2.812 2.816 2.816 0 01-2.812 2.813z"/></symbol><symbol id="icon-bold" viewBox="0 0 9 9"><path d="M6.222 4.26c.33-.391.528-.897.528-1.447A2.252 2.252 0 004.5.563H1.687v7.875h3.375a2.252 2.252 0 002.25-2.25c0-.817-.438-1.534-1.091-1.928zM3.375 1.688h.892c.492 0 .892.505.892 1.125s-.4 1.125-.892 1.125h-.892v-2.25zm1.397 5.625H3.375v-2.25h1.397c.514 0 .932.505.932 1.125s-.418 1.125-.932 1.125z"/></symbol></defs></svg>