<svg aria-hidden="true" style="position:absolute;width:0;height:0" xmlns="http://www.w3.org/2000/svg" overflow="hidden"><defs><symbol id="icon-diagram" viewBox="0 0 9 9"><path d="M8.813 8.625H.188c-.103 0-.188.084-.188.187s.084.187.188.187h8.625a.187.187 0 000-.374z"/><path d="M1.687 6.375H.562a.188.188 0 00-.188.187v2.25c0 .103.084.187.188.187h1.125a.188.188 0 00.188-.187v-2.25a.188.188 0 00-.188-.187zM1.5 8.625H.75V6.75h.75v1.875zM3.937 4.5H2.812a.188.188 0 00-.188.187v4.125c0 .103.084.187.188.187h1.125a.188.188 0 00.188-.187V4.687a.188.188 0 00-.188-.187zM3.75 8.625H3v-3.75h.75v3.75zM6.187 5.25H5.062a.188.188 0 00-.188.187v3.375c0 .103.084.188.188.188h1.125a.188.188 0 00.188-.188V5.437a.188.188 0 00-.188-.187zM6 8.625h-.75v-3H6v3zM8.437 3H7.312a.188.188 0 00-.188.188v5.625c0 .103.084.188.188.188h1.125a.187.187 0 00.187-.188V3.188A.188.188 0 008.437 3zM8.25 8.625H7.5v-5.25h.75v5.25zM1.125 3.375a.75.75 0 100 1.5.75.75 0 000-1.5zm0 1.125a.375.375 0 110-.75.375.375 0 010 .75zM3.375 1.5a.75.75 0 100 1.5.75.75 0 000-1.5zm0 1.125a.375.375 0 110-.75.375.375 0 010 .75zM5.625 2.25a.75.75 0 100 1.5.75.75 0 000-1.5zm0 1.125a.375.375 0 110-.75.375.375 0 010 .75zM7.875 0a.75.75 0 100 1.5.75.75 0 000-1.5zm0 1.125a.375.375 0 110-.75.375.375 0 010 .75z"/><path d="M7.61 1.015a.188.188 0 00-.265 0L5.89 2.47a.188.188 0 00.265.265L7.61 1.28a.188.188 0 000-.265zM5.172 2.567l-1.205-.343a.188.188 0 00-.102.361l1.205.343a.187.187 0 00.231-.129.188.188 0 00-.129-.232zM3.082 2.484a.187.187 0 00-.263-.03L1.405 3.581a.188.188 0 00.117.335.19.19 0 00.117-.04l1.414-1.127a.188.188 0 00.03-.264z"/></symbol><symbol id="icon-search" viewBox="0 0 9 9"><path d="M8.89 8.36L6.33 5.801a3.521 3.521 0 00.794-2.236v-.002C7.124 1.599 5.526 0 3.562 0S-.001 1.598-.001 3.563s1.598 3.562 3.563 3.562h.002c.851 0 1.632-.3 2.243-.799l-.006.005 2.559 2.56a.374.374 0 00.53 0 .374.374 0 000-.53zM3.562 6.375A2.816 2.816 0 01.749 3.563 2.816 2.816 0 013.561.75a2.816 2.816 0 012.813 2.812 2.816 2.816 0 01-2.812 2.813z"/></symbol><symbol id="icon-bold" viewBox="0 0 9 9"><path d="M6.222 4.26c.33-.391.528-.897.528-1.447A2.252 2.252 0 004.5.563H1.687v7.875h3.375a2.252 2.252 0 002.25-2.25c0-.817-.438-1.534-1.091-1.928zM3.375 1.688h.892c.492 0 .892.505.892 1.125s-.4 1.125-.892 1.125h-.892v-2.25zm1.397 5.625H3.375v-2.25h1.397c.514 0 .932.505.932 1.125s-.418 1.125-.932 1.125z"/></symbol></defs></svg>