<svg aria-hidden="true" style="position:absolute;width:0;height:0" xmlns="http://www.w3.org/2000/svg" overflow="hidden"><defs><symbol id="icon-diagram" viewBox="0 0 9 9"><path d="M8.813 8.625H.188c-.103 0-.188.084-.188.187s.084.187.188.187h8.625a.187.187 0 000-.374z"/><path d="M1.687 6.375H.562a.188.188 0 00-.188.187v2.25c0 .103.084.187.188.187h1.125a.188.188 0 00.188-.187v-2.25a.188.188 0 00-.188-.187zM1.5 8.625H.75V6.75h.75v1.875zM3.937 4.5H2.812a.188.188 0 00-.188.187v4.125c0 .103.084.187.188.187h1.125a.188.188 0 00.188-.187V4.687a.188.188 0 00-.188-.187zM3.75 8.625H3v-3.75h.75v3.75zM6.187 5.25H5.062a.188.188 0 00-.188.187v3.375c0 .103.084.188.188.188h1.125a.188.188 0 00.188-.188V5.437a.188.188 0 00-.188-.187zM6 8.625h-.75v-3H6v3zM8.437 3H7.312a.188.188 0 00-.188.188v5.625c0 .103.084.188.188.188h1.125a.187.187 0 00.187-.188V3.188A.188.188 0 008.437 3zM8.25 8.625H7.5v-5.25h.75v5.25zM1.125 3.375a.75.75 0 100 1.5.75.75 0 000-1.5zm0 1.125a.375.375 0 110-.75.375.375 0 010 .75zM3.375 1.5a.75.75 0 100 1.5.75.75 0 000-1.5zm0 1.125a.375.375 0 110-.75.375.375 0 010 .75zM5.625 2.25a.75.75 0 100 1.5.75.75 0 000-1.5zm0 1.125a.375.375 0 110-.75.375.375 0 010 .75zM7.875 0a.75.75 0 100 1.5.75.75 0 000-1.5zm0 1.125a.375.375 0 110-.75.375.375 0 010 .75z"/><path d="M7.61 1.015a.188.188 0 00-.265 0L5.89 2.47a.188.188 0 00.265.265L7.61 1.28a.188.188 0 000-.265zM5.172 2.567l-1.205-.343a.188.188 0 00-.102.361l1.205.343a.187.187 0 00.231-.129.188.188 0 00-.129-.232zM3.082 2.484a.187.187 0 00-.263-.03L1.405 3.581a.188.188 0 00.117.335.19.19 0 00.117-.04l1.414-1.127a.188.188 0 00.03-.264z"/></symbol><symbol id="icon-search" viewBox="0 0 9 9"><path d="M8.89 8.36L6.33 5.801a3.521 3.521 0 00.794-2.236v-.002C7.124 1.599 5.526 0 3.562 0S-.001 1.598-.001 3.563s1.598 3.562 3.563 3.562h.002c.851 0 1.632-.3 2.243-.799l-.006.005 2.559 2.56a.374.374 0 00.53 0 .374.374 0 000-.53zM3.562 6.375A2.816 2.816 0 01.749 3.563 2.816 2.816 0 013.561.75a2.816 2.816 0 012.813 2.812 2.816 2.816 0 01-2.812 2.813z"/></symbol><symbol id="icon-pencil" viewBox="0 0 9 9"><path d="M7.594 0a1.406 1.406 0 011.125 2.25l-.563.563L6.187.844 6.75.281C6.985.104 7.277 0 7.594 0zM.563 6.469L0 9l2.531-.563 5.203-5.203-1.969-1.969L.562 6.468zm5.726-3.273L2.352 7.133l-.485-.485L5.805 2.71l.485.485z"/></symbol><symbol id="icon-floppy-disk" viewBox="0 0 9 9"><path d="M7.875 0H0v9h9V1.125L7.875 0zM4.5 1.125h1.125v2.25H4.5v-2.25zm3.375 6.75h-6.75v-6.75h.563v2.813h5.063V1.125h.659l.466.466v6.284z"/></symbol><symbol id="icon-bin" viewBox="0 0 9 9"><path d="M1.125 2.813v5.625c0 .309.253.563.563.563h5.063a.565.565 0 00.563-.563V2.813H1.126zm1.688 5.062H2.25V3.937h.563v3.938zm1.125 0h-.563V3.937h.563v3.938zm1.125 0H4.5V3.937h.563v3.938zm1.125 0h-.563V3.937h.563v3.938zM7.453 1.125H5.625V.422A.423.423 0 005.203 0H3.234a.423.423 0 00-.422.422v.703H.984a.423.423 0 00-.422.422v.703h7.313v-.703a.423.423 0 00-.422-.422zm-2.39 0H3.375V.57h1.688v.555z"/></symbol></defs></svg>