<svg width="20" height="20" fill="none" xmlns="http://www.w3.org/2000/svg"><path fill-rule="evenodd" clip-rule="evenodd" d="M10 0C4.477 0 0 4.477 0 10s4.477 10 10 10 10-4.477 10-10S15.523 0 10 0zm1.006 4.724H9.001v.338h-.724v-.385c0-.373.303-.677.676-.677h2.101c.373 0 .677.304.677.677v.385h-.725v-.338zm2.397 3.208h-6.8a.319.319 0 00-.317.344l.568 7.03a.755.755 0 00.753.694H12.4c.393 0 .72-.302.752-.695l.568-7.029a.319.319 0 00-.318-.344zM8.25 15.25l-.022.001a.362.362 0 01-.361-.34l-.357-5.77a.362.362 0 01.723-.045l.356 5.77c.013.2-.14.372-.339.384zm2.12-.361a.362.362 0 01-.725 0v-5.77a.362.362 0 11.725 0v5.77zm2.127-5.75l-.34 5.771a.362.362 0 01-.361.34h-.022a.362.362 0 01-.34-.383l.34-5.77a.362.362 0 11.723.043zm1.921-3.038l.238.713a.298.298 0 01-.284.393H5.635a.298.298 0 01-.283-.393l.237-.713a.46.46 0 01.437-.315h7.955a.46.46 0 01.437.315z" fill="#A6A6A6"/></svg>